<svg width="13" height="13" xmlns="http://www.w3.org/2000/svg" xml:space="preserve" version="1.1">

 <g>
  <title>Layer 1</title>
  <path id="svg_1" fill="#91979C" d="m11.5,4.1l-2.2,-2.2c-0.2,-0.2 -0.4,-0.2 -0.6,0l-0.4,0.2l-0.2,-0.2l0.2,-0.5c0.1,-0.3 0,-0.5 -0.1,-0.6l-0.6,-0.6c-0.1,-0.1 -0.2,-0.2 -0.4,-0.2l0,0c-0.1,0 -0.2,0.1 -0.3,0.2l-1.8,1.8c-0.1,0.1 -0.1,0.2 -0.1,0.3s0,0.2 0.1,0.3l0.7,0.7c0.1,0.1 0.3,0.2 0.6,0.1l0.5,-0.2l0.2,0.2l-0.2,0.4c-0.1,0 -0.1,0.1 -0.1,0.2c0,0.1 0,0.2 0.1,0.3l0.9,0.9c0.1,0.1 0.2,0.1 0.3,0c0.1,-0.1 0.1,-0.2 0,-0.3l-0.9,-0.9c0,0 0,0 0,-0.1l0.3,-0.6c0,-0.1 0,-0.2 0,-0.2l-0.4,-0.4c-0.1,0 -0.2,0 -0.3,0l-0.6,0.3c0,0 0,0 0,0l-0.8,-0.7l1.8,-1.8l0.8,0.7c0,0 0,0 0,0.1l-0.3,0.6c0,0.1 0,0.2 0,0.2l0.4,0.4c0.1,0.1 0.2,0.1 0.2,0l0.7,-0.2c0,0 0,0 0.1,0l2.2,2.2c0,0 1.3,1.1 1.3,2.3c0,0.5 0,0.8 -0.2,1.3c-0.5,-1.8 -1.6,-2.5 -1.7,-2.5c-0.1,0 -0.1,0 -0.2,0l-1.3,0.4c0,0 -0.1,0 -0.1,0l-0.5,-0.5c0,0 -0.1,-0.1 -0.2,-0.1c-0.1,0 -0.1,0 -0.2,0.1l-6.9,6.9c0,0 -0.2,0.1 -0.3,0.1c-0.1,0 -0.2,-0.1 -0.3,-0.2l-0.2,-0.2c0,0 -0.1,-0.2 -0.1,-0.3c0,-0.1 0.1,-0.2 0.2,-0.3l6.4,-6.3c0.1,-0.1 0.1,-0.2 0,-0.3c-0.1,-0.1 -0.2,-0.1 -0.3,0l-6.3,6.3c0,0 -0.3,0.3 -0.3,0.6c0,0.3 0.3,0.6 0.3,0.6l0.2,0.2c0,0 0.3,0.3 0.6,0.3c0.3,0 0.6,-0.3 0.6,-0.3l6.7,-6.7l0.4,0.4c0.1,0.1 0.3,0.2 0.5,0.1l1.2,-0.5c0.3,0.2 1.2,1.1 1.5,2.8c0,0.1 0.1,0.2 0.2,0.2c0.1,0 0.2,0 0.2,-0.1c0.5,-0.9 0.5,-1.4 0.5,-2c-0.1,-1.5 -1.5,-2.7 -1.5,-2.7z" class="st0"/>
 </g>
</svg>